<?xml version="1.0" standalone="no"?>
<!DOCTYPE svg PUBLIC "-//W3C//DTD SVG 20010904//EN"
 "http://www.w3.org/TR/2001/REC-SVG-20010904/DTD/svg10.dtd">
<svg version="1.0" xmlns="http://www.w3.org/2000/svg"
 width="166.000000pt" height="166.000000pt" viewBox="0 0 166.000000 166.000000"
 preserveAspectRatio="xMidYMid meet">

<g transform="translate(0.000000,166.000000) scale(0.100000,-0.100000)"
fill="#000000" stroke="none">
<path d="M117 1092 c-23 -25 -21 -45 6 -70 35 -33 90 -30 115 6 18 25 19 30 6
55 -13 24 -20 27 -63 27 -34 0 -53 -5 -64 -18z"/>
<path d="M298 1084 c-35 -76 85 -119 136 -48 18 25 18 26 -5 50 -18 19 -33 24
-71 24 -42 0 -50 -3 -60 -26z"/>
<path d="M485 1086 c-44 -67 61 -121 120 -62 25 25 25 44 2 74 -5 6 -31 12
-58 12 -40 0 -51 -4 -64 -24z"/>
<path d="M677 1092 c-22 -25 -21 -44 3 -70 21 -22 61 -28 95 -16 24 9 36 49
25 79 -8 22 -15 25 -58 25 -35 0 -54 -5 -65 -18z"/>
<path d="M860 1085 c-11 -30 1 -70 25 -79 34 -12 74 -6 95 16 42 46 12 88 -64
88 -40 0 -48 -3 -56 -25z"/>
<path d="M1053 1098 c-45 -58 26 -121 102 -92 27 11 38 53 20 80 -13 20 -24
24 -64 24 -27 0 -53 -6 -58 -12z"/>
<path d="M1231 1086 c-23 -24 -23 -25 -5 -50 51 -71 171 -28 136 48 -10 23
-18 26 -60 26 -38 0 -53 -5 -71 -24z"/>
<path d="M1416 1083 c-34 -66 69 -116 122 -60 43 46 15 87 -61 87 -40 0 -48
-4 -61 -27z"/>
<path d="M150 883 c-33 -12 -50 -37 -50 -73 0 -78 91 -109 143 -50 29 32 47
38 47 17 0 -48 100 -64 139 -23 34 36 26 94 -16 119 -42 24 -100 15 -115 -19
-12 -26 -48 -33 -48 -10 0 7 -6 18 -12 24 -17 13 -69 22 -88 15z"/>
<path d="M510 879 c-32 -13 -40 -26 -40 -71 0 -50 28 -78 78 -78 50 0 82 29
82 74 0 62 -60 100 -120 75z"/>
<path d="M688 872 c-28 -16 -33 -33 -29 -82 4 -40 29 -60 77 -60 51 0 74 25
74 80 0 44 -8 56 -43 69 -37 14 -47 14 -79 -7z"/>
<path d="M890 879 c-32 -13 -40 -26 -40 -69 0 -55 23 -80 74 -80 61 0 83 30
78 105 -2 21 -49 56 -74 54 -7 0 -24 -5 -38 -10z"/>
<path d="M1073 880 c-27 -11 -43 -40 -43 -79 0 -42 34 -71 82 -71 50 0 78 28
78 78 0 46 -8 58 -43 71 -33 13 -44 13 -74 1z"/>
<path d="M1243 870 c-28 -17 -33 -26 -33 -58 0 -52 32 -82 87 -82 39 0 73 22
73 48 0 21 19 13 47 -18 53 -60 143 -28 143 52 0 47 -29 73 -81 72 -41 -1 -69
-17 -69 -40 0 -8 -9 -14 -20 -14 -11 0 -20 4 -20 8 0 42 -79 63 -127 32z"/>
<path d="M224 691 c-25 -11 -38 -62 -26 -105 15 -56 123 -62 143 -8 11 29 6
89 -9 104 -14 14 -84 19 -108 9z"/>
<path d="M395 675 c-52 -51 -15 -135 60 -135 34 0 75 27 75 50 0 18 24 10 45
-15 12 -16 34 -28 57 -32 32 -5 41 -1 68 25 16 17 30 40 30 52 0 12 -14 35
-30 52 -27 26 -36 30 -68 25 -23 -4 -45 -16 -57 -32 -21 -25 -45 -33 -45 -15
0 6 -9 19 -20 30 -29 29 -84 27 -115 -5z"/>
<path d="M783 690 c-26 -11 -39 -66 -26 -106 18 -54 124 -58 144 -6 11 29 6
89 -9 104 -14 14 -84 19 -109 8z"/>
<path d="M960 672 c-16 -17 -30 -40 -30 -52 0 -12 14 -35 30 -52 27 -26 36
-30 68 -25 23 4 45 16 57 32 21 25 45 33 45 15 0 -5 9 -19 20 -30 29 -29 84
-27 115 5 52 51 15 135 -60 135 -34 0 -75 -27 -75 -50 0 -18 -24 -10 -45 15
-12 16 -34 28 -57 32 -32 5 -41 1 -68 -25z"/>
<path d="M1343 690 c-26 -11 -39 -66 -26 -107 19 -57 129 -56 145 2 12 47 -1
95 -29 106 -30 11 -61 11 -90 -1z"/>
<path d="M303 507 c-30 -16 -43 -39 -43 -76 0 -45 8 -57 43 -70 60 -23 145 -7
154 29 7 27 37 25 51 -4 15 -33 41 -36 322 -36 281 0 307 3 322 36 14 29 44
31 51 4 12 -48 159 -54 189 -7 15 24 8 87 -12 107 -23 23 -26 23 -95 21 -41
-2 -55 -8 -78 -32 -30 -31 -47 -37 -47 -16 0 8 -9 22 -21 33 -20 18 -40 19
-309 19 -269 0 -289 -1 -309 -19 -12 -11 -21 -25 -21 -33 0 -21 -17 -15 -47
16 -22 23 -39 30 -80 33 -28 3 -59 1 -70 -5z"/>
</g>
</svg>
